<svg width="376" height="140" viewBox="0 0 376 140" fill="none" xmlns="http://www.w3.org/2000/svg">
<path fill-rule="evenodd" clip-rule="evenodd" d="M84.5316 0C67.3536 0 53.3504 14.0032 53.3504 31.1812C53.3504 33.8172 53.6822 36.3749 54.3076 38.821L36.4884 47.5046C33.1636 43.5782 28.2083 41.0688 22.6987 41.0688C12.7719 41.0688 4.63435 49.2063 4.63435 59.1331C4.63435 69.06 12.7719 77.1983 22.6987 77.1983C32.6176 77.1983 40.7631 69.06 40.7631 59.1331C40.7631 57.9932 40.6529 56.8855 40.4471 55.8089L57.8703 47.3145C63.3482 56.3231 73.2511 62.3632 84.5316 62.3632C88.4422 62.3632 92.1784 61.627 95.6299 60.3129L107.924 86.3414L116.03 81.9717L103.657 55.7689C110.988 50.0614 115.714 41.1555 115.714 31.1812C115.714 14.0032 101.71 0 84.5316 0ZM107.924 86.3414C107.026 87.0151 106.166 87.7367 105.346 88.5009L107.924 86.3414ZM84.5316 7.25126C97.7911 7.25126 108.462 17.9217 108.462 31.1812C108.462 44.4407 97.7911 55.1119 84.5316 55.1119C71.2721 55.1119 60.6092 44.4407 60.6092 31.1812C60.6092 17.9217 71.2721 7.25126 84.5316 7.25126Z" fill="#4c79ee"/>
<path d="M97.7761 80.2056L98.5053 139.129C98.5053 139.129 117.859 141.088 127.17 139.129C132.751 137.955 139.19 135.36 142.618 132.265C149.27 126.259 151.379 117.968 151.379 109.815C151.379 101.662 149.28 93.3037 142.618 87.2726C138.471 83.5184 132.389 81.414 126.612 80.2056C117.243 78.2461 97.7761 80.2056 97.7761 80.2056ZM107.306 87.9408C119.478 87.6391 128.6 86.6168 136.032 92.7442C140.507 96.4339 142.301 102.853 142.301 109.815C142.301 116.778 140.481 123.093 136.048 126.778C128.624 132.949 119.729 131.922 107.306 131.86V87.9408Z" fill="#4c79ee"/>
<path d="M172.601 107.684H179.274C183.749 107.684 186.991 106.853 189.001 105.191C191.011 103.53 192.016 101.065 192.016 97.7955C192.016 94.4727 190.93 92.0878 188.76 90.6408C186.589 89.1937 183.32 88.4702 178.952 88.4702H172.601V107.684ZM172.601 115.642V139.116H162.995V80.3508H179.595C187.179 80.3508 192.793 81.771 196.437 84.6115C200.082 87.4519 201.904 91.7394 201.904 97.474C201.904 104.79 198.099 110.002 190.488 113.11L207.089 139.116H196.156L182.087 115.642H172.601Z" fill="#4c79ee"/>
<path d="M263.361 80.3508V118.376C263.361 122.717 262.423 126.522 260.547 129.791C258.698 133.033 256.005 135.539 252.468 137.308C248.957 139.049 244.75 139.92 239.847 139.92C232.558 139.92 226.89 137.991 222.844 134.132C218.798 130.273 216.774 124.968 216.774 118.215V80.3508H226.421V117.531C226.421 122.382 227.547 125.959 229.798 128.264C232.049 130.568 235.505 131.72 240.168 131.72C249.225 131.72 253.754 126.964 253.754 117.451V80.3508H263.361Z" fill="#4c79ee"/>
<path d="M304.077 107.241H325.702V136.745C322.165 137.897 318.762 138.714 315.492 139.197C312.25 139.679 308.74 139.92 304.961 139.92C296.065 139.92 289.205 137.294 284.381 132.042C279.558 126.763 277.146 119.327 277.146 109.734C277.146 100.274 279.866 92.8783 285.306 87.5457C290.746 82.1864 298.235 79.5067 307.775 79.5067C313.911 79.5067 319.726 80.6857 325.22 83.0439L321.843 91.0427C317.073 88.8454 312.304 87.7467 307.534 87.7467C301.263 87.7467 296.306 89.7163 292.662 93.6554C289.017 97.5946 287.195 102.981 287.195 109.814C287.195 116.996 288.83 122.462 292.099 126.214C295.395 129.938 300.124 131.801 306.288 131.801C309.396 131.801 312.719 131.412 316.256 130.635V115.481H304.077V107.241Z" fill="#4c79ee"/>
<path d="M375.382 123.159C375.382 128.384 373.493 132.484 369.714 135.459C365.936 138.433 360.724 139.92 354.078 139.92C347.433 139.92 341.993 138.889 337.759 136.825V127.741C340.439 129.001 343.279 129.992 346.28 130.716C349.309 131.439 352.122 131.801 354.721 131.801C358.527 131.801 361.327 131.077 363.122 129.63C364.945 128.183 365.856 126.24 365.856 123.802C365.856 121.605 365.025 119.742 363.363 118.215C361.702 116.687 358.272 114.879 353.073 112.788C347.714 110.618 343.936 108.139 341.738 105.352C339.541 102.565 338.442 99.2158 338.442 95.3034C338.442 90.3996 340.184 86.5409 343.668 83.7272C347.151 80.9135 351.827 79.5067 357.696 79.5067C363.323 79.5067 368.924 80.7393 374.498 83.2046L371.443 91.0427C366.217 88.8454 361.555 87.7467 357.455 87.7467C354.346 87.7467 351.988 88.43 350.38 89.7967C348.773 91.1365 347.969 92.9185 347.969 95.1427C347.969 96.6701 348.29 97.9831 348.933 99.0818C349.576 100.154 350.635 101.172 352.109 102.137C353.583 103.101 356.236 104.374 360.067 105.955C364.382 107.751 367.544 109.425 369.554 110.98C371.563 112.534 373.037 114.289 373.975 116.245C374.913 118.201 375.382 120.506 375.382 123.159Z" fill="#4c79ee"/>
<path d="M169.984 19.4371C169.984 25.5736 167.974 30.2764 163.954 33.5457C159.935 36.8149 154.214 38.4495 146.791 38.4495H140.681V60.4363H131.075V1.67078H147.997C155.339 1.67078 160.833 3.1714 164.477 6.17265C168.148 9.1739 169.984 13.5954 169.984 19.4371ZM140.681 30.3702H145.786C150.717 30.3702 154.334 29.5127 156.639 27.7977C158.943 26.0827 160.096 23.403 160.096 19.7587C160.096 16.3823 159.064 13.8634 157.001 12.2019C154.937 10.5405 151.722 9.70984 147.354 9.70984H140.681V30.3702Z" fill="#4c79ee"/>
<path d="M216.609 60.4363H183.367V1.67078H216.609V9.79023H192.974V25.788H215.121V33.827H192.974V52.2767H216.609V60.4363Z" fill="#4c79ee"/>
<path d="M279.955 60.4363H268.178L239.277 13.6088H238.956L239.157 16.2215C239.532 21.2057 239.719 25.7612 239.719 29.8879V60.4363H230.997V1.67078H242.654L271.474 48.2571H271.715C271.661 47.6408 271.554 45.4033 271.393 41.5445C271.233 37.659 271.152 34.6309 271.152 32.4604V1.67078H279.955V60.4363Z" fill="#4c79ee"/>
<path d="M20.9498 37.0748L0 48.248V72.118L20.9498 83.4182L41.8996 72.118V48.248L20.9498 37.0748Z" fill="#FFC769"/>
</svg>
