<svg width="334" height="129" viewBox="0 0 334 129" fill="none" xmlns="http://www.w3.org/2000/svg">
    <path d="M92.4087 77.7996V127.915C92.4087 127.915 110.198 129.615 118.275 127.915C123.117 126.897 128.703 124.646 131.676 121.961C137.447 116.751 139.276 109.558 139.276 102.486C139.276 95.413 137.456 88.1621 131.676 82.9302C128.079 79.6734 122.803 77.8479 117.791 76.7996C109.664 75.0997 92.4087 77.7996 92.4087 77.7996ZM101.043 83.5098C111.602 83.2481 119.516 82.3613 125.963 87.6768C129.845 90.8776 131.401 96.4461 131.401 102.486C131.401 108.526 129.823 114.004 125.977 117.201C119.537 122.554 111.82 121.663 101.043 121.61V83.5098Z" fill="#4C79EE"/>
    <path d="M157.687 100.637H163.475C167.357 100.637 170.17 99.9161 171.914 98.4743C173.657 97.0334 174.529 94.895 174.529 92.0588C174.529 89.1762 173.587 87.1073 171.704 85.8521C169.821 84.5967 166.985 83.9691 163.196 83.9691H157.687V100.637ZM157.687 107.541V127.904H149.353V76.9255H163.754C170.333 76.9255 175.203 78.1575 178.364 80.6217C181.526 83.0857 183.107 86.8051 183.107 91.7799C183.107 98.1265 179.806 102.648 173.203 105.344L187.605 127.904H178.12L165.916 107.541H157.687Z" fill="#4C79EE"/>
    <path d="M236.421 76.9255V109.912C236.421 113.678 235.607 116.979 233.979 119.815C232.375 122.627 230.039 124.801 226.971 126.336C223.925 127.846 220.276 128.602 216.022 128.602C209.699 128.602 204.782 126.928 201.272 123.581C197.762 120.233 196.007 115.631 196.007 109.773V76.9255H204.375V109.179C204.375 113.387 205.352 116.491 207.305 118.49C209.258 120.489 212.256 121.488 216.301 121.488C224.158 121.488 228.087 117.362 228.087 109.11V76.9255H236.421Z" fill="#4C79EE"/>
    <path d="M271.742 100.253H290.501V125.847C287.433 126.847 284.481 127.555 281.644 127.974C278.832 128.393 275.787 128.602 272.509 128.602C264.791 128.602 258.84 126.324 254.655 121.768C250.472 117.188 248.379 110.737 248.379 102.415C248.379 94.2089 250.739 87.7931 255.458 83.1671C260.177 78.5179 266.674 76.1933 274.95 76.1933C280.273 76.1933 285.317 77.216 290.083 79.2618L287.154 86.2007C283.016 84.2946 278.879 83.3414 274.741 83.3414C269.301 83.3414 265 85.0501 261.839 88.4672C258.677 91.8845 257.097 96.5572 257.097 102.485C257.097 108.715 258.515 113.457 261.351 116.712C264.21 119.942 268.312 121.558 273.66 121.558C276.356 121.558 279.239 121.221 282.307 120.547V107.401H271.742V100.253Z" fill="#4C79EE"/>
    <path d="M333.599 114.062C333.599 118.594 331.96 122.151 328.682 124.732C325.404 127.312 320.883 128.602 315.117 128.602C309.353 128.602 304.634 127.707 300.961 125.917V118.036C303.286 119.129 305.749 119.989 308.353 120.617C310.98 121.244 313.421 121.558 315.675 121.558C318.977 121.558 321.406 120.93 322.963 119.675C324.545 118.42 325.335 116.734 325.335 114.619C325.335 112.713 324.614 111.097 323.172 109.773C321.731 108.447 318.756 106.879 314.246 105.065C309.597 103.182 306.319 101.032 304.413 98.614C302.507 96.1963 301.553 93.2909 301.553 89.8969C301.553 85.6428 303.064 82.2954 306.087 79.8545C309.108 77.4137 313.165 76.1933 318.256 76.1933C323.137 76.1933 327.996 77.2625 332.832 79.4012L330.182 86.2007C325.648 84.2946 321.604 83.3414 318.047 83.3414C315.35 83.3414 313.304 83.9342 311.909 85.1198C310.515 86.2821 309.818 87.828 309.818 89.7575C309.818 91.0825 310.096 92.2215 310.654 93.1746C311.212 94.1048 312.131 94.9879 313.409 95.825C314.688 96.6613 316.989 97.7656 320.313 99.1371C324.056 100.695 326.799 102.147 328.543 103.496C330.286 104.844 331.564 106.367 332.378 108.064C333.192 109.76 333.599 111.76 333.599 114.062Z" fill="#4C79EE"/>
    <path d="M161.416 20.083C161.416 25.4064 159.673 29.4861 156.185 32.3222C152.699 35.1582 147.736 36.5762 141.296 36.5762H135.996V55.6497H127.663V4.67078H142.343C148.712 4.67078 153.478 5.97256 156.639 8.57614C159.824 11.1797 161.416 15.0154 161.416 20.083ZM135.996 29.5675H140.425C144.702 29.5675 147.84 28.8236 149.84 27.3358C151.838 25.8481 152.838 23.5234 152.838 20.362C152.838 17.433 151.943 15.2478 150.154 13.8065C148.363 12.3652 145.574 11.6446 141.785 11.6446H135.996V29.5675Z" fill="#4C79EE"/>
    <path d="M201.863 55.6497H173.026V4.67078H201.863V11.7144H181.36V25.5924H200.573V32.5662H181.36V48.5713H201.863V55.6497Z" fill="#4C79EE"/>
    <path d="M256.816 55.6497H246.599L221.528 15.027H221.249L221.424 17.2935C221.749 21.6173 221.911 25.5692 221.911 29.1491V55.6497H214.345V4.67078H224.457L249.459 45.0843H249.668C249.621 44.5497 249.528 42.6086 249.388 39.2611C249.25 35.8905 249.179 33.2636 249.179 31.3807V4.67078H256.816V55.6497Z" fill="#4C79EE"/>
    <path d="M21.8328 58.611L55.6672 39.389" stroke="#4C79EE" stroke-width="7"/>
    <path d="M110 79.5L98.5426 54.202" stroke="#4C79EE" stroke-width="7"/>
    <circle cx="84" cy="31" r="27.5" stroke="#4C79EE" stroke-width="7"/>
    <path d="M23.3027 35.3297C21.8321 34.5454 20.0674 34.5454 18.5969 35.3297L2.64706 43.8362C1.01774 44.7052 0 46.4014 0 48.248V66.134C0 67.9721 1.00854 69.662 2.62632 70.5346L18.5761 79.1378C20.0577 79.937 21.8419 79.937 23.3235 79.1378L39.2733 70.5346C40.8911 69.662 41.8996 67.9721 41.8996 66.134V48.248C41.8996 46.4014 40.8819 44.7052 39.2525 43.8362L23.3027 35.3297Z" fill="#FFC769"/>
</svg>
